# xmcd CD database file
#
# Track frame offsets:
#	150
#	12062
#	23712
#	36171
#	46216
#	57117
#	67561
#	78768
#	89553
#	103385
#	113885
#	125688
#	137051
#	147610
#	159586
#	170987
#
# Disc length: 2472 seconds
#
# Revision: 0
# Processed by: cddbd v1.5.2PL0 Copyright (c) Steve Scherf et al.
# Submitted via: CDex 1.70beta2
#
DISCID=d909a610
DTITLE=Patsy Cline - The Best Of CD 1
DYEAR=1900
DGENRE=Country
TTITLE0=Walkin' After Midnight
TTITLE1=I've Loved And Lost Again
TTITLE2=A poor Mans Roses
TTITLE3=Turn The Cards Slowly
TTITLE4=I Cried All The Way To The Altar
TTITLE5=Pick Me Up (On Your Way Down)
TTITLE6=A Stranger In My Arms
TTITLE7=Honky-Tonk Merry Go Round
TTITLE8=A Church A Court Room and Then Good Bye
TTITLE9=Three Cigarettes In An Ash Tray
TTITLE10=Never No More
TTITLE11=Dear God
TTITLE12=Love Sick Blues
TTITLE13=If I Could Stay A Sleep
TTITLE14=Just Out Of RFeach
TTITLE15=Then You'll Know
EXTD=
EXTT0=
EXTT1=
EXTT2=
EXTT3=
EXTT4=
EXTT5=
EXTT6=
EXTT7=
EXTT8=
EXTT9=
EXTT10=
EXTT11=
EXTT12=
EXTT13=
EXTT14=
EXTT15=
PLAYORDER=
